<svg width="414" height="398" viewBox="0 0 414 398" fill="none" xmlns="http://www.w3.org/2000/svg">
<path d="M236.544 93.1836H243.712L249.856 100.352L254.976 114.688L256 128L253.952 138.24L249.856 149.504L244.736 154.624L240.64 159.744L232.448 166.912L209.92 189.44L207.872 207.872L205.824 218.112L199.68 229.376L190.464 239.616L182.272 245.76L165.888 252.928L164.864 253.952V263.168L172.032 264.192L188.416 256L200.704 247.808L209.92 237.568L218.112 219.136L222.208 204.8H244.736L250.88 215.04L260.096 225.28L268.288 232.448L272.384 236.544V238.592L276.48 240.64L277.504 245.76L269.312 252.928L268.288 253.952L257.024 256L246.784 262.144L239.616 270.336L235.52 279.552L233.472 292.864L219.136 294.912L208.896 300.032L200.704 309.248L196.608 317.44L195.584 321.536V333.824L198.656 343.04L204.8 352.256L216.064 364.544L228.352 376.832L236.544 384L247.808 395.264V397.312H220.16L187.392 392.192L165.888 387.072L142.336 379.904L121.856 371.712L109.568 364.544L100.352 357.376L96.256 351.232V349.184H0V204.8H96.256L97.28 199.68L104.448 188.416L116.736 175.104L129.024 163.84L146.432 150.528L164.864 137.216L169.984 133.12L175.104 130.048L187.392 121.856L195.584 117.76L211.968 107.52L229.376 97.2796L236.544 93.1836Z" fill="white"/>
<path d="M270.336 172.032H283.648L289.792 175.104L320.512 205.824L328.704 212.992L340.992 226.304L345.088 232.448L347.136 239.616V246.784L344.064 256L338.944 263.168H336.896L334.848 267.264L316.416 285.696L312.32 284.672L296.96 269.312L290.816 262.144L284.672 258.048L286.72 253.952L295.936 245.76L294.912 241.664L260.096 206.848L256 198.656V186.368L260.096 178.176L267.264 173.056L270.336 172.032Z" fill="white"/>
<path d="M224.256 307.2H233.472L240.64 310.272L248.832 317.44L258.048 327.68L275.456 344.064L285.696 354.304L289.792 362.496V372.736L285.696 380.928L278.528 387.072L271.36 389.12L261.12 388.096L254.976 385.024L245.76 374.784L237.568 367.616L210.944 340.992L208.896 334.848V321.536L211.968 314.368L218.112 309.248L224.256 307.2Z" fill="white"/>
<path d="M261.121 268.288H275.457L282.625 272.384L291.841 281.6L299.009 289.792L311.297 301.056L325.633 315.392L328.705 321.536L329.729 330.752L326.657 339.968L318.465 347.136L313.345 349.184H302.081L295.937 346.112L281.601 331.776L273.409 324.608L253.953 305.152L248.833 296.96L247.809 292.864V284.672L250.881 276.48L254.977 271.36L261.121 268.288Z" fill="white"/>
<path d="M368.64 172.032H382.976L391.168 177.152L395.264 182.272L397.312 186.368V200.704L391.168 209.92L378.88 222.208L371.712 230.4L363.52 238.592H360.448L356.352 226.304L348.16 215.04L336.896 203.776L338.944 198.656L361.472 176.128L368.64 172.032Z" fill="white"/>
<path d="M267.265 0H278.529L284.673 5.12L285.697 7.168V50.176L280.577 56.32L278.529 57.344H267.265L261.121 52.224L260.097 50.176V7.168L265.217 1.024L267.265 0Z" fill="white"/>
<path d="M349.184 32.7676L358.4 33.7916L364.544 38.9116L365.568 48.1276L362.496 54.2716L342.016 74.7516L333.824 80.8956H325.632L319.488 76.7996L316.416 72.7036V64.5116L320.512 58.3676L344.064 34.8156L349.184 32.7676Z" fill="white"/>
<path d="M363.521 112.64H406.529L412.673 117.76L413.697 119.808V130.048L408.577 136.192L406.529 137.216H363.521L357.377 132.096L356.353 130.048V119.808L361.473 113.664L363.521 112.64Z" fill="white"/>
</svg>
