<svg width="512" height="512" viewBox="0 0 512 512" fill="none" xmlns="http://www.w3.org/2000/svg">
<path d="M183.296 89.0879H206.848L222.208 94.2079L233.472 101.376L240.64 107.52L248.832 118.784L253.952 130.048L256 141.312V158.72L252.928 173.056L245.76 186.368L237.568 195.584L229.376 202.752L220.16 210.944L211.968 218.112L210.944 241.664H179.2V203.776L189.44 193.536L197.632 186.368L211.968 173.056L217.088 167.936L221.184 161.792L223.232 154.624V145.408L220.16 136.192L212.992 126.976L202.752 122.88H188.416L177.152 128L169.984 136.192L166.912 150.528H134.144V141.312L137.216 130.048L145.408 113.664L153.6 104.448L166.912 95.2319L183.296 89.0879Z" fill="white"/>
<path d="M179.2 270.336H210.944V301.056H179.2V270.336Z" fill="white"/>
<path d="M175.104 0H215.04L240.64 3.072L271.36 13.312L288.768 21.504L300.032 28.672L314.368 38.912L320.512 44.032L325.632 47.104L338.944 59.392L342.016 64.512L350.208 73.728L361.472 89.088L371.712 106.496L380.928 128L388.096 155.648L391.168 175.104V186.368L401.408 188.416L422.912 197.632L442.368 209.92L456.704 220.16L466.944 230.4L476.16 241.664L490.496 261.12L498.688 277.504L504.832 292.864L509.952 309.248L512 327.68V365.568L508.928 387.072L500.736 411.648L492.544 428.032L491.52 433.152L503.808 477.184L509.952 498.688L512 512L495.616 508.928L444.416 494.592L433.152 491.52L428.032 492.544L411.648 500.736L394.24 506.88L382.976 509.952L365.568 512H328.704L310.272 509.952L289.792 503.808L270.336 495.616L257.024 487.424L240.64 475.136L226.304 462.848L219.136 455.68L202.752 431.104L194.56 416.768L187.392 398.336L186.368 391.168H175.104L150.528 387.072L124.928 379.904L106.496 371.712L97.28 366.592L89.088 367.616L37.888 381.952L20.48 386.048L2.048 391.168H0L2.048 377.856L20.48 312.32L24.576 299.008L23.552 291.84L15.36 276.48L8.192 258.048L3.072 240.64L0 216.064V175.104L2.048 155.648L6.144 140.288L11.264 124.928L20.48 104.448L28.672 90.112L35.84 80.896L44.032 69.632L53.248 58.368L60.416 51.2L69.632 44.032L84.992 32.768L95.232 25.6L112.64 16.384L139.264 6.144L155.648 2.048L175.104 0ZM194.56 30.72L177.152 31.744L160.768 34.816L134.144 41.984L117.76 50.176L101.376 60.416L88.064 70.656L77.824 79.872L70.656 88.064L57.344 105.472L48.128 121.856L41.984 134.144L34.816 159.744L31.744 177.152L30.72 196.608L31.744 214.016L36.864 239.616L43.008 259.072L55.296 282.624L59.392 288.768L58.368 296.96L48.128 332.8L45.056 345.088L58.368 343.04L98.304 331.776L104.448 332.8L117.76 340.992L139.264 350.208L159.744 356.352L177.152 359.424L195.584 360.448L212.992 359.424L235.52 355.328L257.024 348.16L275.456 339.968L289.792 330.752L301.056 322.56L308.224 314.368L313.344 310.272L320.512 302.08L325.632 296.96L334.848 283.648L344.064 267.264L353.28 242.688L358.4 220.16L359.424 212.992V178.176L356.352 159.744L350.208 139.264L340.992 117.76L330.752 101.376L320.512 88.064L312.32 79.872L308.224 75.776L302.08 70.656L296.96 65.536L280.576 54.272L257.024 41.984L231.424 34.816L214.016 31.744L194.56 30.72ZM390.144 219.136L385.024 244.736L381.952 253.952L378.88 266.24L368.64 288.768L361.472 300.032L351.232 314.368L342.016 325.632L332.8 336.896L326.656 340.992L317.44 349.184L300.032 361.472L286.72 369.664L266.24 378.88L239.616 386.048L219.136 390.144L224.256 403.456L232.448 418.816L239.616 429.056L242.688 432.128L247.808 437.248L258.048 448.512L273.408 459.776L289.792 468.992L301.056 473.088L318.464 478.208L330.752 480.256L348.16 481.28L368.64 479.232L386.048 475.136L401.408 470.016L418.816 460.8L424.96 456.704L435.2 458.752L464.896 466.944H466.944L462.848 450.56L456.704 428.032L457.728 422.912L465.92 409.6L472.064 396.288L478.208 374.784L480.256 362.496V330.752L476.16 310.272L470.016 291.84L461.824 276.48L451.584 262.144L444.416 253.952L436.224 246.784L430.08 241.664L425.984 237.568L411.648 228.352L394.24 220.16L390.144 219.136Z" fill="white"/>
</svg>
