<svg width="459" height="512" viewBox="0 0 459 512" fill="none" xmlns="http://www.w3.org/2000/svg">
<path d="M223.232 0H235.52L253.952 4.096L296.96 16.384L355.328 32.768L379.904 39.936L394.24 44.032L408.576 47.104L440.32 56.32L448.512 61.44L452.608 69.632L456.704 107.52L458.752 143.36V199.68L456.704 232.448L453.632 259.072L448.512 289.792L441.344 318.464L438.272 330.752L428.032 356.352L417.792 375.808L403.456 395.264L399.36 400.384L396.288 405.504L382.976 420.864L367.616 435.2L360.448 442.368L355.328 447.488L344.064 456.704L329.728 466.944L313.344 477.184L300.032 485.376L280.576 495.616L251.904 507.904L235.52 512H223.232L206.848 507.904L185.344 498.688L163.84 488.448L146.432 478.208L136.192 471.04L125.952 464.896L113.664 455.68L103.424 447.488L98.304 442.368L81.92 425.984L73.728 418.816L61.44 404.48L55.296 395.264L43.008 378.88L32.768 360.448L23.552 338.944L18.432 324.608L12.288 297.984L7.168 273.408L3.072 244.736L1.024 220.16L0 199.68V143.36L3.072 96.256L6.144 69.632L10.24 61.44L18.432 56.32L57.344 45.056L71.68 41.984L101.376 33.792L125.952 26.624L187.392 9.216L211.968 2.048L223.232 0ZM328.704 145.408L319.488 151.552L307.2 163.84L302.08 168.96L264.192 206.848L259.072 211.968L222.208 248.832L217.088 253.952L210.944 260.096L206.848 258.048L200.704 252.928L195.584 247.808L180.224 231.424L159.744 210.944H157.696L155.648 206.848L146.432 199.68L139.264 198.656L131.072 201.728L122.88 209.92L114.688 217.088L108.544 224.256L107.52 226.304V236.544L111.616 242.688L126.976 258.048L135.168 265.216L151.552 282.624L169.984 301.056L178.176 308.224L193.536 324.608L201.728 332.8L207.872 334.848L216.064 333.824L224.256 326.656L231.424 319.488L238.592 311.296L247.808 302.08L256 294.912L274.432 276.48L281.6 268.288L290.816 259.072L299.008 251.904L317.44 233.472L324.608 225.28L332.8 217.088L340.992 209.92L359.424 191.488L365.568 182.272V174.08L361.472 166.912L342.016 147.456L336.896 145.408H328.704Z" fill="white"/>
</svg>
