<svg width="429" height="420" viewBox="0 0 429 420" fill="none" xmlns="http://www.w3.org/2000/svg">
<path d="M251.904 0H262.144L286.72 7.168L303.104 14.336L326.656 26.624L340.992 36.864L352.256 45.056L365.568 57.344L373.76 65.536L382.976 76.8L386.048 81.92L393.216 91.136L403.456 108.544L414.72 132.096L421.888 153.6L424.96 166.912L428.032 197.632V222.208L424.96 252.928L418.816 275.456L412.672 292.864L404.48 309.248L394.24 326.656L387.072 335.872L379.904 346.112L368.64 358.4L362.496 364.544L364.544 368.64L388.096 392.192L391.168 397.312V406.528L388.096 411.648L384 413.696H284.672L279.552 410.624L277.504 407.552V305.152L282.624 299.008L290.816 297.984L296.96 301.056L328.704 332.8L335.872 326.656L343.04 318.464L355.328 301.056L361.472 291.84L369.664 275.456L375.808 259.072L379.904 243.712L382.976 223.232V195.584L379.904 175.104L374.784 157.696L368.64 141.312L359.424 123.904L347.136 106.496L336.896 93.184L328.704 84.992L317.44 76.8L300.032 64.512L282.624 55.296L257.024 46.08L246.784 43.008L238.592 36.864L234.496 28.672V16.384L238.592 8.192L245.76 2.048L251.904 0Z" fill="white"/>
<path d="M44.032 6.14355H143.36L149.504 10.2396L150.528 12.2876V114.688L146.432 119.808L142.336 121.856L134.144 120.832L125.952 113.664L99.328 87.0396L92.16 93.1836L84.992 101.376L71.68 119.808L65.536 130.048L57.344 146.432L49.152 171.008L46.08 187.392L45.056 196.608V224.256L48.128 244.736L54.272 265.216L60.416 280.576L69.632 297.984L81.92 314.368L88.064 322.56L97.28 332.8L106.496 339.968L124.928 353.28L139.264 361.472L158.72 369.664L181.248 376.832L189.44 382.976L193.536 391.168V403.456L189.44 411.648L183.296 416.768L176.128 419.84H165.888L141.312 412.672L124.928 405.504L101.376 393.216L87.04 382.976L74.752 373.76L61.44 361.472L54.272 354.304L46.08 344.064L41.984 337.92L34.816 328.704L24.576 311.296L13.312 287.744L6.144 266.24L3.072 252.928L0 221.184V197.632L3.072 166.912L9.216 143.36L15.36 126.976L23.552 110.592L33.792 93.1836L39.936 83.9676L45.056 78.8476L48.128 73.7276L59.392 61.4396L65.536 55.2956L63.488 51.1996L46.08 33.7916L38.912 25.5996L36.864 22.5276V12.2876L41.984 7.16755L44.032 6.14355Z" fill="white"/>
<path d="M303.104 134.144L314.368 136.192L321.536 141.312L326.656 150.528V163.84L321.536 172.032L292.864 200.704L286.72 207.872L278.528 215.04L256 237.568L250.88 242.688L243.712 250.88L235.52 258.048L207.872 285.696L201.728 292.864L194.56 297.984L187.392 300.032H180.224L172.032 296.96L163.84 290.816L158.72 285.696L151.552 277.504L143.36 270.336L131.072 258.048L125.952 251.904L120.832 247.808L115.712 242.688L109.568 235.52L104.448 230.4L101.376 224.256V210.944L106.496 202.752L112.64 197.632L117.76 195.584H129.024L137.216 199.68L148.48 210.944L156.672 218.112L168.96 230.4L176.128 238.592L182.272 244.736L186.368 242.688L290.816 138.24L296.96 135.168L303.104 134.144Z" fill="white"/>
</svg>
