<svg width="416" height="256" viewBox="0 0 416 256" fill="none" xmlns="http://www.w3.org/2000/svg">
<path d="M389.173 141.961H324.71L317.468 158.797H381.786C385.751 158.797 388.449 162.825 386.881 166.468L383.64 174H291.249L304.489 143.222C308.843 133.105 318.856 126.546 329.932 126.546H384.378L391.517 109.95H318.803L325.239 95H398.068C407.323 95 413.592 104.392 409.947 112.863L400.778 134.177C398.782 138.82 394.234 141.855 389.173 141.961Z" fill="white"/>
<path fill-rule="evenodd" clip-rule="evenodd" d="M22.9695 95.4342C18.5043 95.4331 14.4662 98.0421 12.6988 102.068L5.45241 118.783C3.88325 122.404 6.58873 126.423 10.5971 126.423H34.1925C35.3123 126.423 36.3238 125.766 36.7632 124.755L39.1081 119.362H14.2756L20.915 104.076L17.3098 102.402H44.6353C45.7551 102.402 46.7666 101.745 47.2059 100.734L49.5093 95.4374L22.9695 95.4342ZM83.8427 119.745C82.0889 123.794 78.0458 126.423 73.5695 126.423H48.6298C44.6251 126.423 41.9225 122.399 43.4959 118.776L50.7416 102.099C52.4977 98.0572 56.5374 95.4342 61.0094 95.4342H85.9494C89.9551 95.4342 92.6567 99.459 91.0833 103.08L83.8427 119.745ZM75.6824 117.695L82.3229 102.402H55.51L58.9392 104.076L52.2986 119.362H73.1154C74.2337 119.362 75.2436 118.705 75.6824 117.694V117.695ZM105.704 172.542H100.403L110.852 148.518C110.444 148.518 99.3016 148.52 99.3016 148.52L102.355 141.554H134.435L132.313 146.488C131.807 147.667 130.364 148.52 128.953 148.52H119.825L110.852 169.203C109.974 171.228 107.948 172.542 105.704 172.542ZM210.688 163.926H207.866L200.192 163.915L196.38 172.541H187.566L201.07 141.554H209.862L203.498 156.182L224.381 142.04C224.847 141.724 225.401 141.554 225.969 141.554H239.188L215.79 157.525L226.349 172.542H216.691L210.688 163.927V163.926ZM193.817 141.554H184.777L171.293 172.542H177.874C179.287 172.542 180.799 171.621 181.307 170.441L193.817 141.554ZM167.381 172.541H157.965L154.081 165.48H137.417L135.796 169.207C134.917 171.23 132.894 172.541 130.654 172.541H125.281L138.754 141.554H168.721C172.731 141.554 175.437 145.577 173.862 149.199L168.055 162.558C167.285 164.331 165.51 165.482 163.547 165.482L167.382 172.542L167.381 172.541ZM170.327 157.191L165.339 148.52L140.636 148.541L144.054 150.166L140.412 158.59H159.135C160.257 158.59 161.269 157.931 161.708 156.918L165.337 148.521L170.327 157.191ZM245.187 154.425H265.45L263.542 158.798C263.101 159.806 262.092 160.46 260.977 160.46H242.55L240.355 165.481H265.104L262.777 170.87C262.34 171.884 261.329 172.542 260.209 172.542H232.496C230.495 172.542 229.144 170.531 229.93 168.719L240.275 144.888C241.153 142.866 243.173 141.554 245.409 141.554H275.505L273.208 146.85C272.769 147.862 271.759 148.518 270.641 148.518H243.547L247.039 150.159L245.187 154.425ZM98.2255 119.356L108.524 95.4407H103.15C100.914 95.4407 98.8923 96.7513 98.0128 98.772L89.3023 118.773C87.7252 122.395 90.4297 126.423 94.4398 126.423H117.309C121.795 126.423 125.845 123.79 127.597 119.734L138.097 95.4407L132.782 95.4342C130.539 95.431 128.511 96.747 127.634 98.7763L119.448 117.681C119.013 118.699 117.997 119.361 116.873 119.361L98.2255 119.356ZM190.409 126.423H185.107L195.557 102.398C195.149 102.398 184.005 102.4 184.005 102.4L187.059 95.4342H219.138L217.017 100.368C216.51 101.547 215.067 102.4 213.656 102.4H204.528L195.557 123.083C194.678 125.108 192.652 126.423 190.409 126.423ZM287.905 119.362L291.74 126.421H282.324L278.44 119.361H261.775L260.155 123.087C259.276 125.11 257.253 126.421 255.013 126.421H249.64L263.113 95.4342H293.079C297.089 95.4342 299.796 99.4578 298.221 103.079L292.413 116.439C291.643 118.212 289.869 119.362 287.905 119.362ZM289.698 102.4L294.687 111.072L289.697 102.401L286.067 110.798C285.629 111.812 284.616 112.47 283.495 112.47H264.771L268.413 104.046L264.995 102.422L289.698 102.4ZM247.534 108.305H227.224L229.08 104.039L225.58 102.398H252.738C253.859 102.398 254.872 101.742 255.312 100.731L257.614 95.4342H227.447C225.205 95.4342 223.181 96.7468 222.301 98.7683L211.932 122.6C211.144 124.411 212.497 126.423 214.504 126.423H242.281C243.404 126.423 244.417 125.764 244.855 124.751L247.188 119.362H222.38L224.581 114.341H243.051C244.17 114.341 245.18 113.686 245.622 112.678L247.534 108.305ZM141.177 123.087C140.298 125.109 138.273 126.423 136.032 126.423H130.656L144.137 95.4396L150.872 95.4342C151.909 95.4342 152.862 95.9957 153.346 96.8961L164.102 116.864L172.006 98.7721C172.886 96.7562 174.906 95.4482 177.142 95.446L182.602 95.4396L169.832 124.756C169.392 125.766 168.38 126.423 167.26 126.423H161.542C160.506 126.423 159.556 125.861 159.071 124.963L148.71 105.775L141.175 123.087H141.177ZM78.5915 165.481L80.7451 160.527L80.7458 160.526L61.9115 160.527C57.9052 160.527 55.1996 156.513 56.7645 152.893L58.7709 148.248C60.5231 144.19 64.5766 141.554 69.0663 141.554H97.7927L95.4998 146.849C95.0619 147.863 94.0481 148.52 92.9273 148.52H63.2452L66.7606 150.194L65.3788 153.385H84.1941C88.2049 153.385 90.9116 157.409 89.3368 161.03L87.2308 165.874C85.4733 169.918 81.4251 172.542 76.9464 172.542H48.218L50.5817 167.142C51.0233 166.134 52.0326 165.481 53.1504 165.481H78.5915Z" fill="white"/>
</svg>