<svg width="256" height="256" viewBox="0 0 256 256" fill="none" xmlns="http://www.w3.org/2000/svg">
<path d="M127.723 75.2593C129.417 74.6723 131.267 75.1623 132.82 75.9279C133.905 76.6263 134.989 77.3322 136.204 77.7891C136.297 77.9637 136.49 78.3092 136.583 78.4801C136.535 78.5952 136.442 78.833 136.394 78.9481C137.259 80.917 137.813 83.2499 136.973 85.3187C136.401 86.0171 135.405 86.1252 134.599 86.3957C134.596 87.395 134.755 88.3835 134.841 89.3754C136.564 89.654 138.024 88.4541 139.729 88.573C139.959 87.6182 140.141 86.6479 140.446 85.7121C140.799 86.3325 140.814 87.0462 140.818 87.7445C141.264 87.8709 141.717 87.986 142.173 88.0971C142.178 88.2683 142.181 88.6101 142.181 88.781C149.655 88.8256 157.125 88.7472 164.6 88.8219C164.582 89.0774 164.545 89.5905 164.53 89.8472C164.723 89.8472 165.117 89.8509 165.313 89.8509C165.306 88.4916 165.313 87.1279 165.31 85.7686C165.499 85.7608 165.871 85.7497 166.056 85.746C166.061 86.8158 166.064 87.8857 166.075 88.956C166.238 89.1566 166.565 89.5574 166.729 89.758C166.852 89.6128 167.097 89.3275 167.219 89.1822C167.787 89.7138 167.464 90.4419 167.439 91.095C169.53 91.0723 171.644 91.2135 173.728 91.0426C173.884 90.9274 174.196 90.7008 174.352 90.586C174.639 90.6971 174.928 90.8089 175.214 90.9241C176.154 90.9011 177.098 90.8981 178.041 90.8944C178.022 91.381 178.007 91.8673 177.988 92.3543C176.774 92.3354 175.555 92.3097 174.359 92.5174C173.586 91.8528 172.55 92.0638 171.617 92.0386C170.184 92.1054 168.704 91.8528 167.316 92.3094C166.49 92.5397 165.585 92.4843 164.856 92.0159C164.681 92.4505 164.949 93.4238 164.217 93.3863C161.334 93.4238 158.455 93.3607 155.576 93.4053C155.182 93.6133 154.785 93.8102 154.392 94.003C153.976 95.2437 152.783 96.0718 151.768 96.8296C151.642 98.7353 152.396 100.515 152.69 102.364C152.121 102.527 151.549 102.695 150.988 102.881C150.182 104.783 150.676 107.379 148.811 108.706C147.381 109.538 146.434 111.347 144.506 111.062C145.486 111.879 144.238 111.623 144.368 110.969C140.88 110.66 137.942 108.614 134.91 107.054C134.769 107.908 134.547 108.748 134.316 109.583C135.467 109.803 136.418 110.65 136.623 111.831C136.991 114.406 136.255 116.962 136.266 119.543C136.348 121.059 135.698 122.448 134.888 123.685C134.178 124.488 133.06 123.662 132.209 123.544C132.016 123.919 131.827 124.295 131.641 124.673C131.883 125.683 131.987 126.735 132.325 127.723C134.223 129.822 135.95 132.096 137.277 134.603C138.642 137.443 139.858 140.352 140.921 143.318C141.025 143.894 141.567 144.101 142.043 144.31C142.107 144.904 142.17 145.498 142.229 146.1C142.415 146.371 142.604 146.642 142.798 146.917C142.913 150.58 142.463 154.228 141.894 157.842C141.542 159.473 142.496 161.067 142.11 162.709C142.154 163.549 141.575 164.184 141.303 164.927C141.251 166.662 141.166 168.419 141.356 170.151C141.489 171.421 142.564 172.238 143.292 173.186C144.087 174.029 144.752 175.162 145.955 175.463C147.088 175.801 148.169 176.291 149.168 176.934C149.472 177.688 149.417 178.487 149.272 179.27C147.095 179.671 144.873 179.471 142.674 179.505C140.98 179.594 139.468 178.684 137.822 178.494C136.228 178.454 134.285 179.245 133.06 177.818C133.58 175.839 133.621 173.713 134.571 171.867C134.876 169.775 134.297 167.654 134.419 165.544C134.238 165.392 133.873 165.087 133.691 164.934C133.822 163.556 133.142 162.33 132.915 161.011C132.767 159.086 132.591 157.162 132.368 155.245C132.194 154.313 132.677 153.459 133.334 152.839C133.394 151.761 133.539 150.695 133.643 149.625C133.483 148.93 132.929 148.414 132.573 147.82C131.38 148.322 129.772 148.084 129.062 146.917C127.38 144.413 125.7 141.909 123.999 139.42C123.33 139.376 122.624 139.446 122 139.179C121.28 138.44 120.904 137.455 120.445 136.556C119.787 137.296 119.835 138.428 119.055 139.101C117.406 140.684 116.967 143.009 116.106 145.037C115.445 146.352 115.817 147.938 115.08 149.22C114.686 149.911 113.698 150.048 113.438 150.837C113.097 151.687 112.695 152.567 111.897 153.085C111.031 153.652 110.801 154.73 110.415 155.621C110.062 156.442 110.586 157.304 110.463 158.148C109.914 160.826 108.209 163.066 107.492 165.689C107.165 166.87 106.696 168.2 105.322 168.453C103.758 171.246 102.896 174.664 103.78 177.81C104.323 178.798 104.293 179.908 104.126 180.997C101.641 181.19 99.0922 181.524 96.6519 180.83C96.0798 179.697 96.1616 178.363 96.2804 177.138C97.0342 173.917 98.0339 170.752 98.6464 167.498C97.8812 166.818 98.0599 165.778 98.0744 164.868C98.0487 163.17 99.2037 161.81 100.006 160.417C100.307 158.987 100.166 157.45 100.905 156.138C101.775 154.496 102.51 152.72 103.851 151.394C104.107 150.224 104.97 149.34 105.318 148.213C105.69 147.218 105.04 146.207 105.17 145.19C105.49 142.102 106.051 139.045 106.538 135.98C105.617 135.211 105.913 133.989 105.62 132.953C105.765 132.544 105.947 132.154 106.166 131.775C105.936 131.563 105.71 131.348 105.479 131.136C105.702 130.047 105.639 128.097 107.31 128.451C107.414 124.843 106.162 121.351 106.582 117.74C106.805 118 107.024 118.264 107.247 118.528L107.128 117.306C107.827 116.934 108.57 116.648 109.35 116.503C108.079 116.336 106.842 116.013 105.597 115.723C105.296 114.931 105.464 114.089 105.575 113.279C106.058 110.545 106.236 107.773 106.336 105.002C107.744 104.512 109.297 104.928 110.671 104.274C110.245 100.808 110.137 97.19 111.37 93.8648C112.362 91.0337 114.257 88.3033 117.213 87.3081C118.61 86.9741 120.367 86.5985 121.355 87.9544C121.626 87.7055 121.897 87.4492 122.168 87.2003C119.914 82.7224 122.607 76.1806 127.723 75.2593ZM145.766 94.6806C145.171 95.0446 144.588 95.4611 145.213 96.1223C144.908 96.304 144.603 96.4789 144.295 96.6457C143.812 97.0172 142.727 97.2286 142.853 97.9797C143.396 98.8509 143.863 99.7667 144.25 100.717C145.435 99.7443 146.379 98.4359 147.018 97.051C147.151 96.9136 147.423 96.6387 147.556 96.5046C147.497 95.8693 147.356 95.2486 147.107 94.662C146.661 94.6698 146.212 94.6769 145.766 94.6806Z" fill="white"/>
<path d="M156.666 127.936C158.367 125.789 161.116 124.6 163.842 124.645C172.137 124.652 180.436 124.641 188.731 124.648C192.778 124.734 196.723 127.896 197.191 132.005C185.708 131.966 174.228 132.038 162.75 131.966C162.739 139.649 162.724 147.335 162.75 155.021C171.562 155.007 180.373 154.992 189.185 155.029C189.151 152.276 189.195 149.523 189.159 146.771C184.802 146.796 180.444 146.805 176.086 146.771C172.591 146.637 169.991 143.617 169.204 140.4C178.572 140.367 187.938 140.363 197.306 140.404C197.266 145.111 197.329 149.821 197.272 154.528C197.161 158.492 193.751 161.981 189.843 162.378C180.804 162.378 171.762 162.374 162.724 162.374C160.023 162.355 157.635 160.65 156.112 158.522C155.071 157.017 154.837 155.149 154.689 153.376C154.674 147.061 154.696 140.742 154.681 134.427C154.715 132.138 155.12 129.72 156.666 127.936ZM211.471 124.904C212.404 124.652 213.376 124.634 214.339 124.645C222.007 124.668 229.678 124.619 237.345 124.663C241.692 124.849 245.51 128.602 245.678 132.962C245.686 140.01 245.686 147.06 245.678 154.112C245.6 158.432 241.773 162.459 237.387 162.385C228.954 162.348 220.521 162.411 212.088 162.355C207.883 161.887 204.655 157.872 204.625 153.714C204.565 147.287 204.632 140.853 204.591 134.427C204.558 132.532 204.9 130.585 205.903 128.951C207.08 126.896 209.19 125.458 211.471 124.904ZM212.793 131.763C212.808 139.69 212.76 147.621 212.816 155.549C221.052 155.571 229.292 155.545 237.527 155.559C237.553 147.625 237.531 139.689 237.538 131.75C229.291 131.747 221.04 131.733 212.793 131.763ZM0.0131049 133.65C0.188075 129.352 3.78741 125.313 8.16723 125.146C16.3507 125.138 24.5383 125.138 32.7225 125.15C37.1432 125.106 40.8253 129.099 41.1589 133.382C40.5683 133.431 39.9776 133.467 39.3869 133.475C29.6429 133.464 19.8988 133.479 10.158 133.467C10.1539 140.392 10.1175 147.316 10.1766 154.241C20.5191 154.226 30.8576 154.218 41.1998 154.245C40.9063 158.684 37.1688 162.622 32.6634 162.797C25.2485 162.901 17.8337 162.8 10.4184 162.845C8.57215 162.908 6.67014 162.678 5.00625 161.835C2.13838 160.368 0.109691 157.377 0.010133 154.13C0.00196028 147.302 -0.00918431 140.477 0.0131049 133.65ZM49.0344 130.284C50.3978 127.308 53.5183 125.098 56.8397 125.139C65.0124 125.147 73.1888 125.139 81.3656 125.142C85.6336 125.168 89.3931 128.905 89.6944 133.122C78.9135 133.275 68.1255 133.144 57.3416 133.186C57.2929 135.355 57.3156 137.524 57.3119 139.697C65.3286 139.723 73.349 139.705 81.3656 139.705C83.7428 139.798 86.2395 140.56 87.8588 142.398C89.6788 144.025 90.4481 146.503 90.5075 148.888C90.548 151.269 90.548 153.662 90.1617 156.02C89.2776 159.84 85.6258 162.685 81.7293 162.808C73.9359 162.882 66.1377 162.815 58.3443 162.845C56.5058 162.882 54.6038 162.618 52.9726 161.723C50.387 160.374 48.5296 157.662 48.2736 154.75C59.2473 154.803 70.2248 154.783 81.1985 154.758C81.2245 152.446 81.2096 150.136 81.2096 147.826C73.0889 147.77 64.9645 147.818 56.8397 147.803C52.1705 147.84 48.0396 143.549 48.1652 138.895C48.3286 136.027 47.6677 132.948 49.0344 130.284ZM248.215 125.912C249.247 125.886 250.291 125.845 251.32 126.001C250.841 126.124 250.354 126.187 249.864 126.194C249.801 127.313 249.793 128.431 249.808 129.548C249.701 129.548 249.489 129.548 249.385 129.552C249.392 128.404 249.403 127.256 249.389 126.112C249.099 126.135 248.523 126.187 248.237 126.209L248.215 125.912ZM251.899 125.87C252.119 125.882 252.564 125.904 252.788 125.915C253.104 126.921 253.475 127.91 253.936 128.864C254.367 127.902 254.649 126.877 255.125 125.941C255.333 125.911 255.749 125.848 255.956 125.819C255.841 127.186 256.313 128.698 255.574 129.942C255.44 128.731 255.496 127.512 255.418 126.297C254.853 127.431 254.586 128.705 253.847 129.753C253.282 128.676 253.041 127.449 252.365 126.432C252.32 127.517 252.342 128.605 252.327 129.693L251.93 129.648C251.929 128.39 251.911 127.13 251.899 125.87Z" fill="white"/>
</svg>