<?xml version="1.0" encoding="UTF-8"?>
<svg version="1.1" xmlns="http://www.w3.org/2000/svg" width="840" height="840">
<path d="M0 0 C1.9412321 0.26981766 3.88250736 0.53932497 5.82382202 0.80854797 C11.05948646 1.53592597 16.29438039 2.26870109 21.52903318 3.00332093 C24.80338344 3.46278876 28.07784885 3.92142771 31.35234451 4.37985802 C41.61032724 5.81639334 51.86779078 7.25656376 62.12458646 8.7015503 C73.9439457 10.36658317 85.76496472 12.01912424 97.58754385 13.66113454 C106.74684686 14.93404759 115.90452005 16.21827023 125.06104243 17.51103228 C130.52236263 18.28181775 135.98425875 19.04775463 141.44791794 19.80179787 C146.57984482 20.51035446 151.70960469 21.23292205 156.83804703 21.96626091 C158.71785882 22.23260282 160.59839173 22.49391203 162.47966003 22.74976349 C165.05136764 23.10030623 167.61983693 23.46905199 170.18832397 23.84236145 C171.30004945 23.98728105 171.30004945 23.98728105 172.43423402 24.13512832 C177.85792743 24.95287454 183.22641401 26.52919242 186.75963724 31.03926784 C189.28330185 35.04519379 190.31095493 39.191945 191.27197266 43.81713867 C196.19952097 65.48767236 208.37884984 84.35992945 223.45947266 100.37963867 C223.99830078 100.98291992 224.53712891 101.58620117 225.09228516 102.20776367 C231.59211933 109.19753509 239.93123985 114.72933813 248.11572266 119.58666992 C248.6988623 119.93286377 249.28200195 120.27905762 249.8828125 120.63574219 C251.48506714 121.57157843 253.10080056 122.48422747 254.71728516 123.39526367 C258.16958339 125.89350798 259.67287221 127.46450469 261.45947266 131.37963867 C262.53455498 142.25066599 260.47684278 153.25843336 258.95263672 163.99609375 C258.68254602 165.9454974 258.41319825 167.89500411 258.14453125 169.84460449 C257.41728808 175.10368533 256.6786996 180.36111142 255.93718433 185.61819673 C255.317715 190.01664055 254.70353831 194.41581722 254.08923125 198.8149845 C252.63992677 209.19212837 251.18104271 219.5678948 249.71630859 229.94287109 C248.20723968 240.63321312 246.71519982 251.3258361 245.23132539 262.01970178 C243.95395826 271.22059996 242.66568132 280.41992627 241.36874938 289.61808699 C240.59543484 295.10358288 239.82632407 300.58958464 239.06787872 306.07715797 C238.35485372 311.23283441 237.62821142 316.3864115 236.8911438 321.53870392 C236.62344192 323.4261927 236.36051899 325.31436659 236.10280609 327.20324516 C235.7494189 329.78763624 235.37861369 332.36896059 235.003479 334.95027161 C234.90618382 335.69240003 234.80888863 336.43452845 234.70864511 337.19914562 C233.73731412 343.65423269 231.68336903 349.31459204 226.83447266 353.81713867 C222.35460397 356.7644207 218.73285615 357.01719409 213.45947266 356.37963867 C207.67170007 354.90024605 202.04450315 353.00658442 196.39697266 351.06713867 C195.59812653 350.79675781 194.7992804 350.52637695 193.97622681 350.24780273 C180.01942732 345.51168492 166.62935248 340.01759 153.45947266 333.37963867 C152.48204102 332.89495117 151.50460937 332.41026367 150.49755859 331.91088867 C137.60811589 325.49748278 125.322088 318.53500863 113.45947266 310.37963867 C112.41267334 309.66855957 112.41267334 309.66855957 111.34472656 308.94311523 C96.86957134 299.08670979 83.34698146 288.23526858 70.45947266 276.37963867 C68.77255176 274.87898743 67.08504304 273.37899675 65.39697266 271.87963867 C55.33021172 262.8020048 55.33021172 262.8020048 51.45947266 258.37963867 C51.45947266 257.71963867 51.45947266 257.05963867 51.45947266 256.37963867 C50.79947266 256.37963867 50.13947266 256.37963867 49.45947266 256.37963867 C48.11962891 255.08666992 48.11962891 255.08666992 46.52197266 253.19213867 C45.89548828 252.4522168 45.26900391 251.71229492 44.62353516 250.94995117 C43.90939453 250.10174805 43.19525391 249.25354492 42.45947266 248.37963867 C41.66283203 247.46956055 40.86619141 246.55948242 40.04541016 245.62182617 C-5.99025587 192.79301839 -34.07884851 126.47506935 -43.54052734 57.37963867 C-43.67040039 56.46649902 -43.80027344 55.55335938 -43.93408203 54.61254883 C-45.42725586 43.79435803 -45.77695072 32.98089266 -45.91552734 22.06713867 C-45.94171143 20.81989014 -45.96789551 19.5726416 -45.99487305 18.28759766 C-46.00746432 11.44214215 -45.79855182 6.86520174 -41.54052734 1.37963867 C-30.19710762 -7.41729907 -13.30091739 -1.86893491 0 0 Z " fill="#FFFFFF" transform="translate(106.54052734375,403.620361328125)"/>
<path d="M0 0 C0.65556885 0.22430695 1.3111377 0.44861389 1.98657227 0.67971802 C14.56647442 4.98458187 26.78666845 9.94464033 38.8125 15.625 C40.19574463 16.27637939 40.19574463 16.27637939 41.60693359 16.94091797 C61.5002063 26.39860207 80.10523466 37.53108693 97.8125 50.625 C98.39580078 51.05522461 98.97910156 51.48544922 99.58007812 51.92871094 C118.62955997 66.06682579 137.34017927 82.23546317 152.79296875 100.26953125 C154.32103506 102.05178267 155.86884156 103.81713435 157.42578125 105.57421875 C211.42163804 166.84753948 243.53462574 249.84440549 244.1875 331.5625 C244.20135742 332.5922998 244.21521484 333.62209961 244.22949219 334.68310547 C244.19002962 340.86522791 243.68444565 345.54843735 239.27734375 350.26953125 C231.43806281 356.2642755 223.39894493 355.16095309 213.82962036 354.00894165 C211.75901498 353.72546101 209.68969061 353.43250341 207.62158203 353.13134766 C206.47425661 352.97165937 205.32693119 352.81197109 204.14483833 352.64744377 C200.36875911 352.11973787 196.59459735 351.57943999 192.8203125 351.0390625 C190.13743902 350.66067193 187.45418189 350.2850344 184.77093506 349.90930176 C178.36226775 349.01026501 171.95494303 348.10201009 165.54810095 347.1900661 C158.19903091 346.14421386 150.84888713 345.10601397 143.49862599 344.06857085 C139.83236041 343.55109902 136.16612729 343.03339738 132.49990845 342.51559448 C131.41657048 342.36259445 131.41657048 342.36259445 130.31134689 342.20650351 C125.23120942 341.48882624 120.15136912 340.76906824 115.07162476 340.0486145 C99.85262874 337.89100297 84.63031682 335.76209427 69.39748001 333.70402908 C64.39333337 333.02704137 59.39014268 332.34301611 54.38687706 331.65955162 C49.99247713 331.0603084 45.59669222 330.47302245 41.19952393 329.8944664 C37.96215738 329.46466249 34.72738885 329.01607779 31.4921875 328.5703125 C29.83120026 328.35888611 29.83120026 328.35888611 28.13665771 328.14318848 C22.13015389 327.29540604 17.78417109 326.16732086 12.8125 322.625 C9.04714427 317.41442167 7.67466534 312.04676539 6.125 305.875 C0.3824076 284.65018432 -10.0492411 267.48003253 -25.1875 251.625 C-25.72375 251.02558594 -26.26 250.42617188 -26.8125 249.80859375 C-33.30761828 242.8101038 -41.65687574 237.27671982 -49.84375 232.41796875 C-50.71845947 231.89867798 -50.71845947 231.89867798 -51.61083984 231.36889648 C-53.21309448 230.43306024 -54.82882791 229.52041121 -56.4453125 228.609375 C-60.49858063 225.6762408 -62.68034444 222.65350258 -63.89891052 217.77952576 C-64.62433008 211.82167666 -63.35611929 205.83882226 -62.50024414 199.94946289 C-62.30564547 198.56159412 -62.11190262 197.17360513 -61.91894531 195.7855072 C-61.39196433 192.01241675 -60.85297305 188.24112878 -60.31183553 184.47004628 C-59.73871506 180.46135422 -59.1766961 176.45110526 -58.61338806 172.44102478 C-57.53636935 164.7861674 -56.44936028 157.13276294 -55.35881943 149.47982162 C-54.15037738 140.99606218 -52.95305061 132.51074774 -51.75674558 124.02526975 C-50.24355043 113.29234627 -48.7280072 102.55978305 -47.19619751 91.82949829 C-46.73640985 88.60785198 -46.27664051 85.38620305 -45.81689453 82.16455078 C-45.70476537 81.37906774 -45.59263621 80.59358469 -45.47710919 79.78429914 C-43.99387442 69.38697242 -42.54480589 58.98559677 -41.12977183 48.57877696 C-40.50775356 44.01658092 -39.87604625 39.45571488 -39.24578667 34.89465141 C-38.91698767 32.49389272 -38.59315633 30.09244755 -38.27470589 27.69029427 C-37.84213567 24.42895171 -37.39259392 21.17036901 -36.93920898 17.91186523 C-36.82002295 16.97633505 -36.70083691 16.04080486 -36.57803917 15.07692528 C-35.70687167 8.98203544 -34.38620847 2.49461993 -29.61092281 -1.78937626 C-20.6613792 -8.06404293 -9.19691123 -3.21644351 0 0 Z " fill="#FFFFFF" transform="translate(529.1875,78.375)"/>
<path d="M0 0 C1.16490967 -0.02239746 2.32981934 -0.04479492 3.5300293 -0.06787109 C10.12021635 -0.0493771 14.30729625 0.43289909 19.625 4.4375 C24.73916602 10.60072572 24.00394682 16.71064826 23.625 24.4375 C23.07278522 30.03874061 22.29145305 35.5968035 21.48535156 41.16625977 C21.2546228 42.80734654 21.02468573 44.44854479 20.79547119 46.08984375 C20.17514032 50.51552816 19.54382756 54.93958185 18.91042805 59.36341214 C18.24386196 64.03253663 17.58757381 68.70310598 16.93011475 73.3735199 C15.68128168 82.23371088 14.42329575 91.09257685 13.16198516 99.9509992 C11.74205922 109.92663019 10.3324655 119.90371196 8.92372179 129.88092721 C7.19866998 142.09681122 5.47131906 154.3123689 3.73736572 166.5269928 C3.61502288 167.38912677 3.49268004 168.25126074 3.36662984 169.13951999 C2.77381221 173.31482607 2.17929998 177.48987848 1.58124161 181.66443729 C0.61810174 188.3941474 -0.34113898 195.12361488 -1.23625636 201.86276561 C-1.5015031 203.85782407 -1.77131798 205.85227352 -2.04126358 207.84670162 C-2.36183864 210.22222491 -2.67428072 212.59886766 -2.97652817 214.97679234 C-3.99431973 222.44134942 -5.23933439 228.50414138 -11.53222656 233.35644531 C-15.1659238 235.48813733 -19.18910505 236.31889634 -23.25 237.3125 C-45.27350193 243.19866691 -63.17795681 253.39727466 -79.375 269.4375 C-80.47908203 270.45070313 -80.47908203 270.45070313 -81.60546875 271.484375 C-89.67456169 279.0219708 -95.80397505 288.45411499 -101.125 298.0625 C-105.50659962 305.63438875 -105.50659962 305.63438875 -110.375 307.4375 C-120.12963759 308.16024055 -129.72249731 306.79994491 -139.35009766 305.40551758 C-140.91086239 305.18626429 -142.47173843 304.96780216 -144.03271484 304.75006104 C-148.2419345 304.16065119 -152.44952098 303.56026466 -156.65688753 302.95778871 C-161.10786177 302.32238765 -165.56028091 301.69727181 -170.01254272 301.07096863 C-178.46773612 299.87999495 -186.92160286 298.67986269 -195.37502801 297.47640961 C-204.86051909 296.12648802 -214.3474623 294.78691918 -223.83454061 293.44820559 C-235.46978453 291.80612439 -247.1046908 290.1616595 -258.73867798 288.51069641 C-259.55986528 288.39419662 -260.38105257 288.27769683 -261.22712433 288.15766674 C-265.25251189 287.5862707 -269.27764941 287.01319843 -273.30233192 286.43685627 C-280.4788744 285.41015482 -287.65617845 284.39370447 -294.8406688 283.4239307 C-298.07826058 282.98612771 -301.31484274 282.54111425 -304.55135989 282.09544504 C-306.07194445 281.88812284 -307.5930144 281.68432464 -309.11458516 281.48436892 C-311.21121995 281.20864313 -313.30585266 280.9206858 -315.40048218 280.63017273 C-317.17418717 280.39222504 -317.17418717 280.39222504 -318.98372459 280.14947033 C-326.02036204 278.67218628 -330.1765112 276.24129334 -334.375 270.4375 C-337.28615003 264.61519994 -335.30538659 257.51915365 -333.50390625 251.63671875 C-332.6660709 249.124713 -331.81296867 246.62357766 -330.9375 244.125 C-330.48040358 242.78954739 -330.02353776 241.45401584 -329.56689453 240.1184082 C-325.99163411 229.76937836 -321.96566756 219.65667179 -317.40576172 209.70166016 C-316.44279467 207.58641704 -315.51600923 205.45911812 -314.59765625 203.32421875 C-305.74850248 183.17707336 -293.55128479 164.00428027 -280.375 146.4375 C-279.73836426 145.57777588 -279.73836426 145.57777588 -279.08886719 144.70068359 C-273.00054375 136.49354768 -266.47637683 128.69133437 -259.74755859 121.00537109 C-258.55186873 119.63953682 -257.36320603 118.26755707 -256.17578125 116.89453125 C-246.63176208 106.04161802 -236.4333142 95.48192534 -225.046875 86.5546875 C-222.63355674 84.64237976 -220.31663287 82.64951089 -218.00463867 80.61694336 C-190.40914144 56.54665375 -156.44314091 37.53087894 -122.375 24.4375 C-121.11888916 23.94757568 -121.11888916 23.94757568 -119.83740234 23.44775391 C-81.58845497 8.63097677 -41.03873252 0.48871618 0 0 Z " fill="#FFFFFF" transform="translate(409.375,60.5625)"/>
<path d="M0 0 C0.78982623 0.09853179 1.57965247 0.19706358 2.39341283 0.29858118 C4.90122662 0.61564389 7.40594101 0.95177261 9.91082764 1.29112244 C11.47447586 1.49644948 13.03816289 1.70148123 14.60189056 1.90620232 C19.56586235 2.5641388 24.52493501 3.25578102 29.48406982 3.94908142 C31.36856594 4.21069813 33.25308823 4.47212635 35.13763428 4.73338318 C41.24483275 5.58102414 47.35128755 6.4339532 53.45770264 7.28721619 C55.57310824 7.58249975 57.68851812 7.87775265 59.80393219 8.17297554 C69.72585642 9.55800158 79.64743045 10.94550404 89.56857944 12.33607239 C100.99106276 13.93697943 112.41472739 15.52909937 123.83944583 17.11397499 C132.70201928 18.34400108 141.56344038 19.58211012 150.42403531 20.82630783 C155.70498689 21.56765303 160.98637148 22.30549937 166.26900482 23.03477287 C171.22479327 23.71912313 176.17907754 24.41347362 181.13238525 25.11554718 C182.94832672 25.37116889 184.76478114 25.62317685 186.58176422 25.87128639 C189.06312258 26.21068009 191.54229636 26.56309517 194.0213623 26.91879272 C194.73866917 27.01374556 195.45597604 27.10869841 196.19501948 27.2065286 C204.04935286 28.36524127 208.31396908 31.11819808 212.91082764 37.29112244 C216.13055538 43.73057793 213.28734153 51.19946762 211.20083618 57.58598328 C210.49095654 59.7002479 209.76527225 61.80853343 209.03582764 63.91612244 C208.78717957 64.64621521 208.53853149 65.37630798 208.28234863 66.12852478 C191.86717919 114.27443352 165.59889793 157.1864667 130.91082764 194.29112244 C129.95933832 195.34245737 129.01015527 196.3958837 128.06317139 197.45127869 C123.61100355 202.40381009 119.15369141 207.19263259 114.03582764 211.47471619 C111.42980125 213.70229389 108.96593792 216.0623668 106.47332764 218.41612244 C99.06877693 225.28497414 91.04025872 231.31306919 82.91082764 237.29112244 C82.20764404 237.8085199 81.50446045 238.32591736 80.77996826 238.85899353 C63.0949739 251.78611685 44.4729951 262.46347917 24.91082764 272.29112244 C24.15447021 272.673974 23.39811279 273.05682556 22.61883545 273.45127869 C-21.69105477 295.71920683 -72.79168951 307.22961424 -122.33917236 307.79112244 C-123.32562744 307.80965271 -124.31208252 307.82818298 -125.32843018 307.84727478 C-131.37091853 307.79307729 -136.07032789 306.78186384 -141.08917236 303.29112244 C-145.21539289 298.7416998 -145.99390721 294.2659077 -146.08917236 288.29112244 C-145.64483768 282.90084901 -144.86346766 277.56792679 -144.07891846 272.21934509 C-143.84977204 270.6000852 -143.62160882 268.98068591 -143.39434814 267.36116028 C-142.77584571 262.97372117 -142.14363396 258.58835602 -141.50892591 254.2032361 C-140.84125704 249.57362746 -140.18634088 244.94221485 -139.52999878 240.31098938 C-138.28051587 231.5083253 -137.0196695 222.70732811 -135.75471842 213.90687501 C-134.33558143 204.02993158 -132.92892003 194.15122564 -131.52344394 184.27233052 C-129.80036635 172.16251282 -128.07479622 160.05305379 -126.34048462 147.94483948 C-126.21800791 147.08914529 -126.09553119 146.2334511 -125.96934307 145.35182679 C-125.3697314 141.16483793 -124.76789027 136.97819168 -124.16145897 132.79218483 C-123.09957517 125.44839935 -122.05448004 118.10398129 -121.0876559 110.74698937 C-120.66063009 107.50324615 -120.22322956 104.26093657 -119.7852509 101.01865649 C-119.58364088 99.50250034 -119.38735219 97.98562524 -119.19689059 96.46802831 C-117.36389579 81.87217908 -117.36389579 81.87217908 -113.08917236 76.29112244 C-108.22685992 72.83400065 -103.51893203 71.4126732 -97.77667236 70.04112244 C-67.19329425 62.06891156 -40.4973015 42.56100748 -24.00128174 15.50694275 C-22.52286393 12.95689073 -21.09898405 10.38560896 -19.72198486 7.77940369 C-14.75090565 0.20385952 -8.49158431 -1.16797867 0 0 Z " fill="#FFFFFF" transform="translate(546.0891723632813,465.70887756347656)"/>
</svg>
